<?xml version="1.0" encoding="utf-8"?>
<!-- Generator: Adobe Illustrator 19.2.0, SVG Export Plug-In . SVG Version: 6.00 Build 0)  -->
<svg version="1.2" baseProfile="tiny-ps" id="Spam_Master_Logo"
	 xmlns="http://www.w3.org/2000/svg" xmlns:xlink="http://www.w3.org/1999/xlink" viewBox="0 0 128 128"
	 xml:space="preserve"
	 width="20px"
	 height="20px">
<title>SpamMaster</title>
<g>
	<circle fill="#AC372A" cx="64" cy="64" r="64"/>
	<path fill="#B75A30" d="M86.4,4C78.6,7,71,12.1,65,20.3c-21.1,29.1-8.2,41.5-5.3,37c2.9-4.5,17.5-7.5,20.3,10.6
		c2.8,18.1-43.4,53.8-43.5,53.9c8.3,4,17.7,6.2,27.5,6.2h0c35.3,0,64-28.7,64-64C128,36.5,110.7,13.1,86.4,4z"/>
	<path fill="#C6743C" d="M91.6,6.3c-7.8,1.7-15.2,5.4-20,12.8c-15.2,23.5-7,31.6-5,29.5c2-2.1,20-9.5,22.8,15.4S42,124.1,42,124.1v0
		c6.9,2.5,14.2,3.9,22,3.9h0c35.3,0,64-28.7,64-64C128,38.6,113.1,16.6,91.6,6.3z"/>
	<path fill="#D39542" d="M108.3,17.9C66.6,19,68,47.4,74.1,43c6.1-4.5,28.4,5.5,21.8,31.7c-6.5,26.1-60.9,45.9-61.4,46.1
		c8.8,4.6,18.9,7.2,29.5,7.2h0c35.3,0,64-28.7,64-64C128,45.9,120.5,29.5,108.3,17.9z"/>
	<path fill="#F2C664" d="M64,128c35.3,0,64-28.7,64-64c0-13.6-4.3-26.2-11.5-36.6c-22.6-6.9-38.7,9.7-38.7,9.7
		c9.1-2.3,45.7-0.6,36.3,33.6C104.7,104.9,64,128,64,128z"/>
	<path fill="#F0A637" d="M124,86.3c-13.4-9.7-29.8,4.1-36.1,9.1c-6.3,5-16.7,11-45.8,6.2C13.4,96.9,1.3,75.4,0.9,74.6
		c0.7,3.9,1.6,7.7,3,11.3c2,5.4,4.6,10.5,7.9,15.1c11.6,16.3,30.7,27,52.2,27C91.5,128,114.9,110.7,124,86.3z"/>
	<path fill="#F2C664" d="M115.2,102.4L115.2,102.4c-6.1-12-27,12.8-58,14c-30,1.2-43.9-13.6-44.8-14.5C24.1,117.7,42.8,128,64,128
		C84.9,128,103.5,117.9,115.2,102.4z"/>
	<path fill="#F0A637" d="M64,0L64,0L64,0C35.5,0,11.4,18.6,3.1,44.3v0c-1.9,7-3.2,31.5,12.8,35.8c16.9,4.5,32.6-4.3,43.2-22
		C79.2,24.8,123.3,36,128,64C128,28.7,99.3,0,64,0z"/>
	<path fill="#AC372A" d="M118.7,30.8L118.7,30.8C107.5,12.3,87.2,0,64,0c-8.6,0-16.8,1.7-24.3,4.8c-0.8,0.3-1.7,0.7-2.5,1.1
		c-1.6,0.7-3.1,1.5-4.7,2.4c-1.6,0.9-3.1,1.8-4.5,2.8c-2,1.3-3.7,2.7-5.5,4.2l-0.1,0.1c-14,15.4-18.1,50.7-4,54.4
		c14.1,3.7,20.7-4.2,40.4-29.9C78.4,14.3,118.6,30.8,118.7,30.8z"/>
	<path fill="#F2C664" d="M98.1,9.9C92.6,6.4,86.5,3.7,80,2c0,0-15,5.6-26.3,16.6c-11.2,11-18,23.9-23.9,23
		c-6-0.8,7.8-32.7,22.8-40.6c-4.4,0.8-8.7,2-12.7,3.7c-18.4,12-26.9,51.7-16.2,53.2c10.7,1.5,11.9-5.7,30.8-27.9
		C73.1,8.2,97.6,9.8,98.1,9.9z"/>
</g>
</svg>
